<mxfile host="app.diagrams.net" modified="2020-10-27T21:29:39.317Z" agent="5.0 (Windows NT 10.0; Win64; x64) AppleWebKit/537.36 (KHTML, like Gecko) Chrome/86.0.4240.111 Safari/537.36" etag="gM4bZVlfwbSay33Cm8v7" version="13.8.5" type="github">
  <diagram id="2kCRDFUwxtf_5Fmj9jrn" name="Page-1">
    <mxGraphModel dx="920" dy="473" grid="1" gridSize="10" guides="1" tooltips="1" connect="1" arrows="1" fold="1" page="1" pageScale="1" pageWidth="1100" pageHeight="600" math="0" shadow="0">
      <root>
        <mxCell id="0" />
        <mxCell id="1" parent="0" />
        <mxCell id="i8tHs8VNy3ANWFrHOgjr-1" value="IObservador" style="swimlane;fontStyle=1;align=center;verticalAlign=top;childLayout=stackLayout;horizontal=1;startSize=26;horizontalStack=0;resizeParent=1;resizeParentMax=0;resizeLast=0;collapsible=1;marginBottom=0;" parent="1" vertex="1">
          <mxGeometry x="260" y="50" width="210" height="130" as="geometry" />
        </mxCell>
        <mxCell id="8o-GzvRx6LfEdR_IBOxN-38" value="+ quandoAbandona(Produto[ ]): void" style="text;strokeColor=none;fillColor=none;align=left;verticalAlign=top;spacingLeft=4;spacingRight=4;overflow=hidden;rotatable=0;points=[[0,0.5],[1,0.5]];portConstraint=eastwest;" vertex="1" parent="i8tHs8VNy3ANWFrHOgjr-1">
          <mxGeometry y="26" width="210" height="26" as="geometry" />
        </mxCell>
        <mxCell id="8o-GzvRx6LfEdR_IBOxN-37" value="+ quandoCompra(Produto[ ]): void" style="text;strokeColor=none;fillColor=none;align=left;verticalAlign=top;spacingLeft=4;spacingRight=4;overflow=hidden;rotatable=0;points=[[0,0.5],[1,0.5]];portConstraint=eastwest;" vertex="1" parent="i8tHs8VNy3ANWFrHOgjr-1">
          <mxGeometry y="52" width="210" height="26" as="geometry" />
        </mxCell>
        <mxCell id="8o-GzvRx6LfEdR_IBOxN-36" value="+ quandoRemove(Produto): void" style="text;strokeColor=none;fillColor=none;align=left;verticalAlign=top;spacingLeft=4;spacingRight=4;overflow=hidden;rotatable=0;points=[[0,0.5],[1,0.5]];portConstraint=eastwest;" vertex="1" parent="i8tHs8VNy3ANWFrHOgjr-1">
          <mxGeometry y="78" width="210" height="26" as="geometry" />
        </mxCell>
        <mxCell id="8o-GzvRx6LfEdR_IBOxN-35" value="+ quandoAdiciona(Produto): void" style="text;strokeColor=none;fillColor=none;align=left;verticalAlign=top;spacingLeft=4;spacingRight=4;overflow=hidden;rotatable=0;points=[[0,0.5],[1,0.5]];portConstraint=eastwest;" vertex="1" parent="i8tHs8VNy3ANWFrHOgjr-1">
          <mxGeometry y="104" width="210" height="26" as="geometry" />
        </mxCell>
        <mxCell id="i8tHs8VNy3ANWFrHOgjr-5" value="Produto" style="swimlane;fontStyle=1;align=center;verticalAlign=top;childLayout=stackLayout;horizontal=1;startSize=26;horizontalStack=0;resizeParent=1;resizeParentMax=0;resizeLast=0;collapsible=1;marginBottom=0;" parent="1" vertex="1">
          <mxGeometry x="920" y="40" width="160" height="78" as="geometry" />
        </mxCell>
        <mxCell id="i8tHs8VNy3ANWFrHOgjr-6" value="+ codigo: number" style="text;strokeColor=none;fillColor=none;align=left;verticalAlign=top;spacingLeft=4;spacingRight=4;overflow=hidden;rotatable=0;points=[[0,0.5],[1,0.5]];portConstraint=eastwest;" parent="i8tHs8VNy3ANWFrHOgjr-5" vertex="1">
          <mxGeometry y="26" width="160" height="26" as="geometry" />
        </mxCell>
        <mxCell id="i8tHs8VNy3ANWFrHOgjr-9" value="+ descricao: string" style="text;strokeColor=none;fillColor=none;align=left;verticalAlign=top;spacingLeft=4;spacingRight=4;overflow=hidden;rotatable=0;points=[[0,0.5],[1,0.5]];portConstraint=eastwest;" parent="i8tHs8VNy3ANWFrHOgjr-5" vertex="1">
          <mxGeometry y="52" width="160" height="26" as="geometry" />
        </mxCell>
        <mxCell id="i8tHs8VNy3ANWFrHOgjr-14" value="ListaDesejos" style="swimlane;fontStyle=1;align=center;verticalAlign=top;childLayout=stackLayout;horizontal=1;startSize=26;horizontalStack=0;resizeParent=1;resizeParentMax=0;resizeLast=0;collapsible=1;marginBottom=0;" parent="1" vertex="1">
          <mxGeometry x="840" y="260" width="160" height="52" as="geometry" />
        </mxCell>
        <mxCell id="i8tHs8VNy3ANWFrHOgjr-15" value="+ abandona(): void" style="text;strokeColor=none;fillColor=none;align=left;verticalAlign=top;spacingLeft=4;spacingRight=4;overflow=hidden;rotatable=0;points=[[0,0.5],[1,0.5]];portConstraint=eastwest;" parent="i8tHs8VNy3ANWFrHOgjr-14" vertex="1">
          <mxGeometry y="26" width="160" height="26" as="geometry" />
        </mxCell>
        <mxCell id="i8tHs8VNy3ANWFrHOgjr-25" value="" style="line;strokeWidth=1;fillColor=none;align=left;verticalAlign=middle;spacingTop=-1;spacingLeft=3;spacingRight=3;rotatable=0;labelPosition=right;points=[];portConstraint=eastwest;dashed=1;dashPattern=1 1;" parent="1" vertex="1">
          <mxGeometry x="90" y="330" width="780" height="8" as="geometry" />
        </mxCell>
        <mxCell id="i8tHs8VNy3ANWFrHOgjr-28" value="Nível mais alto" style="text;align=center;fontStyle=1;verticalAlign=middle;spacingLeft=3;spacingRight=3;strokeColor=none;rotatable=0;points=[[0,0.5],[1,0.5]];portConstraint=eastwest;dashed=1;dashPattern=1 1;" parent="1" vertex="1">
          <mxGeometry x="120" y="300" width="80" height="26" as="geometry" />
        </mxCell>
        <mxCell id="i8tHs8VNy3ANWFrHOgjr-29" value="Nível mais baixo" style="text;align=center;fontStyle=1;verticalAlign=middle;spacingLeft=3;spacingRight=3;strokeColor=none;rotatable=0;points=[[0,0.5],[1,0.5]];portConstraint=eastwest;dashed=1;dashPattern=1 1;" parent="1" vertex="1">
          <mxGeometry x="120" y="338" width="80" height="26" as="geometry" />
        </mxCell>
        <mxCell id="i8tHs8VNy3ANWFrHOgjr-55" value="Marketing" style="swimlane;fontStyle=1;align=center;verticalAlign=top;childLayout=stackLayout;horizontal=1;startSize=26;horizontalStack=0;resizeParent=1;resizeParentMax=0;resizeLast=0;collapsible=1;marginBottom=0;" parent="1" vertex="1">
          <mxGeometry x="360" y="386" width="210" height="138" as="geometry" />
        </mxCell>
        <mxCell id="i8tHs8VNy3ANWFrHOgjr-56" value="" style="line;strokeWidth=1;fillColor=none;align=left;verticalAlign=middle;spacingTop=-1;spacingLeft=3;spacingRight=3;rotatable=0;labelPosition=right;points=[];portConstraint=eastwest;" parent="i8tHs8VNy3ANWFrHOgjr-55" vertex="1">
          <mxGeometry y="26" width="210" height="8" as="geometry" />
        </mxCell>
        <mxCell id="i8tHs8VNy3ANWFrHOgjr-57" value="+ quandoAdiciona(Produto): void" style="text;strokeColor=none;fillColor=none;align=left;verticalAlign=top;spacingLeft=4;spacingRight=4;overflow=hidden;rotatable=0;points=[[0,0.5],[1,0.5]];portConstraint=eastwest;" parent="i8tHs8VNy3ANWFrHOgjr-55" vertex="1">
          <mxGeometry y="34" width="210" height="26" as="geometry" />
        </mxCell>
        <mxCell id="i8tHs8VNy3ANWFrHOgjr-58" value="+ quandoRemove(Produto): void" style="text;strokeColor=none;fillColor=none;align=left;verticalAlign=top;spacingLeft=4;spacingRight=4;overflow=hidden;rotatable=0;points=[[0,0.5],[1,0.5]];portConstraint=eastwest;" parent="i8tHs8VNy3ANWFrHOgjr-55" vertex="1">
          <mxGeometry y="60" width="210" height="26" as="geometry" />
        </mxCell>
        <mxCell id="i8tHs8VNy3ANWFrHOgjr-59" value="+ quandoCompra(Produto[ ]): void" style="text;strokeColor=none;fillColor=none;align=left;verticalAlign=top;spacingLeft=4;spacingRight=4;overflow=hidden;rotatable=0;points=[[0,0.5],[1,0.5]];portConstraint=eastwest;" parent="i8tHs8VNy3ANWFrHOgjr-55" vertex="1">
          <mxGeometry y="86" width="210" height="26" as="geometry" />
        </mxCell>
        <mxCell id="i8tHs8VNy3ANWFrHOgjr-60" value="+ quandoAbandona(Produto[ ]): void" style="text;strokeColor=none;fillColor=none;align=left;verticalAlign=top;spacingLeft=4;spacingRight=4;overflow=hidden;rotatable=0;points=[[0,0.5],[1,0.5]];portConstraint=eastwest;" parent="i8tHs8VNy3ANWFrHOgjr-55" vertex="1">
          <mxGeometry y="112" width="210" height="26" as="geometry" />
        </mxCell>
        <mxCell id="8o-GzvRx6LfEdR_IBOxN-1" value="Pedido" style="swimlane;fontStyle=1;align=center;verticalAlign=top;childLayout=stackLayout;horizontal=1;startSize=26;horizontalStack=0;resizeParent=1;resizeParentMax=0;resizeLast=0;collapsible=1;marginBottom=0;" vertex="1" parent="1">
          <mxGeometry x="920" y="176" width="160" height="52" as="geometry" />
        </mxCell>
        <mxCell id="8o-GzvRx6LfEdR_IBOxN-2" value="+ produtos: Produto [ ]" style="text;strokeColor=none;fillColor=none;align=left;verticalAlign=top;spacingLeft=4;spacingRight=4;overflow=hidden;rotatable=0;points=[[0,0.5],[1,0.5]];portConstraint=eastwest;" vertex="1" parent="8o-GzvRx6LfEdR_IBOxN-1">
          <mxGeometry y="26" width="160" height="26" as="geometry" />
        </mxCell>
        <mxCell id="8o-GzvRx6LfEdR_IBOxN-3" value="Carrinho" style="swimlane;fontStyle=1;align=center;verticalAlign=top;childLayout=stackLayout;horizontal=1;startSize=26;horizontalStack=0;resizeParent=1;resizeParentMax=0;resizeLast=0;collapsible=1;marginBottom=0;" vertex="1" parent="1">
          <mxGeometry x="540" y="260" width="160" height="52" as="geometry" />
        </mxCell>
        <mxCell id="8o-GzvRx6LfEdR_IBOxN-4" value="+ abandona(): void" style="text;strokeColor=none;fillColor=none;align=left;verticalAlign=top;spacingLeft=4;spacingRight=4;overflow=hidden;rotatable=0;points=[[0,0.5],[1,0.5]];portConstraint=eastwest;" vertex="1" parent="8o-GzvRx6LfEdR_IBOxN-3">
          <mxGeometry y="26" width="160" height="26" as="geometry" />
        </mxCell>
        <mxCell id="8o-GzvRx6LfEdR_IBOxN-8" value="Extends" style="endArrow=block;endSize=16;endFill=0;html=1;exitX=1;exitY=0.5;exitDx=0;exitDy=0;" edge="1" parent="1" source="8o-GzvRx6LfEdR_IBOxN-4" target="8o-GzvRx6LfEdR_IBOxN-19">
          <mxGeometry width="160" relative="1" as="geometry">
            <mxPoint x="640" y="210" as="sourcePoint" />
            <mxPoint x="800" y="210" as="targetPoint" />
          </mxGeometry>
        </mxCell>
        <mxCell id="8o-GzvRx6LfEdR_IBOxN-9" value="Extends" style="endArrow=block;endSize=16;endFill=0;html=1;exitX=0;exitY=-0.231;exitDx=0;exitDy=0;exitPerimeter=0;" edge="1" parent="1" source="i8tHs8VNy3ANWFrHOgjr-15">
          <mxGeometry width="160" relative="1" as="geometry">
            <mxPoint x="640" y="210" as="sourcePoint" />
            <mxPoint x="800" y="210" as="targetPoint" />
          </mxGeometry>
        </mxCell>
        <mxCell id="8o-GzvRx6LfEdR_IBOxN-10" value="1" style="endArrow=open;html=1;endSize=12;startArrow=diamondThin;startSize=14;startFill=0;edgeStyle=orthogonalEdgeStyle;align=left;verticalAlign=bottom;entryX=0;entryY=0.174;entryDx=0;entryDy=0;entryPerimeter=0;exitX=0.989;exitY=0.125;exitDx=0;exitDy=0;exitPerimeter=0;" edge="1" parent="1" source="8o-GzvRx6LfEdR_IBOxN-13" target="i8tHs8VNy3ANWFrHOgjr-6">
          <mxGeometry x="-1" y="3" relative="1" as="geometry">
            <mxPoint x="471.1200000000001" y="80.524" as="sourcePoint" />
            <mxPoint x="800" y="210" as="targetPoint" />
          </mxGeometry>
        </mxCell>
        <mxCell id="8o-GzvRx6LfEdR_IBOxN-11" value="1" style="endArrow=open;html=1;endSize=12;startArrow=diamondThin;startSize=14;startFill=0;edgeStyle=orthogonalEdgeStyle;align=left;verticalAlign=bottom;entryX=0.5;entryY=0;entryDx=0;entryDy=0;" edge="1" parent="1" target="8o-GzvRx6LfEdR_IBOxN-1">
          <mxGeometry x="-1" y="3" relative="1" as="geometry">
            <mxPoint x="1000" y="120" as="sourcePoint" />
            <mxPoint x="1000" y="150" as="targetPoint" />
          </mxGeometry>
        </mxCell>
        <mxCell id="8o-GzvRx6LfEdR_IBOxN-13" value="Carrinho" style="swimlane;fontStyle=1;align=center;verticalAlign=top;childLayout=stackLayout;horizontal=1;startSize=26;horizontalStack=0;resizeParent=1;resizeParentMax=0;resizeLast=0;collapsible=1;marginBottom=0;" vertex="1" parent="1">
          <mxGeometry x="690" y="50" width="160" height="164" as="geometry" />
        </mxCell>
        <mxCell id="8o-GzvRx6LfEdR_IBOxN-14" value="+ produtos: Produto [ ]" style="text;strokeColor=none;fillColor=none;align=left;verticalAlign=top;spacingLeft=4;spacingRight=4;overflow=hidden;rotatable=0;points=[[0,0.5],[1,0.5]];portConstraint=eastwest;" vertex="1" parent="8o-GzvRx6LfEdR_IBOxN-13">
          <mxGeometry y="26" width="160" height="26" as="geometry" />
        </mxCell>
        <mxCell id="8o-GzvRx6LfEdR_IBOxN-15" value="" style="line;strokeWidth=1;fillColor=none;align=left;verticalAlign=middle;spacingTop=-1;spacingLeft=3;spacingRight=3;rotatable=0;labelPosition=right;points=[];portConstraint=eastwest;" vertex="1" parent="8o-GzvRx6LfEdR_IBOxN-13">
          <mxGeometry y="52" width="160" height="8" as="geometry" />
        </mxCell>
        <mxCell id="8o-GzvRx6LfEdR_IBOxN-16" value="+ adiciona(Produto): void" style="text;strokeColor=none;fillColor=none;align=left;verticalAlign=top;spacingLeft=4;spacingRight=4;overflow=hidden;rotatable=0;points=[[0,0.5],[1,0.5]];portConstraint=eastwest;" vertex="1" parent="8o-GzvRx6LfEdR_IBOxN-13">
          <mxGeometry y="60" width="160" height="26" as="geometry" />
        </mxCell>
        <mxCell id="8o-GzvRx6LfEdR_IBOxN-17" value="+ remove(Produto): void" style="text;strokeColor=none;fillColor=none;align=left;verticalAlign=top;spacingLeft=4;spacingRight=4;overflow=hidden;rotatable=0;points=[[0,0.5],[1,0.5]];portConstraint=eastwest;" vertex="1" parent="8o-GzvRx6LfEdR_IBOxN-13">
          <mxGeometry y="86" width="160" height="26" as="geometry" />
        </mxCell>
        <mxCell id="8o-GzvRx6LfEdR_IBOxN-18" value="+ abandona(): void" style="text;strokeColor=none;fillColor=none;align=left;verticalAlign=top;spacingLeft=4;spacingRight=4;overflow=hidden;rotatable=0;points=[[0,0.5],[1,0.5]];portConstraint=eastwest;" vertex="1" parent="8o-GzvRx6LfEdR_IBOxN-13">
          <mxGeometry y="112" width="160" height="26" as="geometry" />
        </mxCell>
        <mxCell id="8o-GzvRx6LfEdR_IBOxN-19" value="+ compra(): Pedido" style="text;strokeColor=none;fillColor=none;align=left;verticalAlign=top;spacingLeft=4;spacingRight=4;overflow=hidden;rotatable=0;points=[[0,0.5],[1,0.5]];portConstraint=eastwest;" vertex="1" parent="8o-GzvRx6LfEdR_IBOxN-13">
          <mxGeometry y="138" width="160" height="26" as="geometry" />
        </mxCell>
        <mxCell id="8o-GzvRx6LfEdR_IBOxN-25" value="Notifica" style="endArrow=open;html=1;endSize=12;startArrow=diamondThin;startSize=14;startFill=0;edgeStyle=orthogonalEdgeStyle;entryX=0;entryY=0.5;entryDx=0;entryDy=0;exitX=1;exitY=0.5;exitDx=0;exitDy=0;" edge="1" parent="1" target="8o-GzvRx6LfEdR_IBOxN-14">
          <mxGeometry relative="1" as="geometry">
            <mxPoint x="470" y="89" as="sourcePoint" />
            <mxPoint x="580" y="210" as="targetPoint" />
          </mxGeometry>
        </mxCell>
        <mxCell id="8o-GzvRx6LfEdR_IBOxN-28" value="Logger" style="swimlane;fontStyle=1;align=center;verticalAlign=top;childLayout=stackLayout;horizontal=1;startSize=26;horizontalStack=0;resizeParent=1;resizeParentMax=0;resizeLast=0;collapsible=1;marginBottom=0;" vertex="1" parent="1">
          <mxGeometry x="138" y="386" width="210" height="138" as="geometry" />
        </mxCell>
        <mxCell id="8o-GzvRx6LfEdR_IBOxN-29" value="" style="line;strokeWidth=1;fillColor=none;align=left;verticalAlign=middle;spacingTop=-1;spacingLeft=3;spacingRight=3;rotatable=0;labelPosition=right;points=[];portConstraint=eastwest;" vertex="1" parent="8o-GzvRx6LfEdR_IBOxN-28">
          <mxGeometry y="26" width="210" height="8" as="geometry" />
        </mxCell>
        <mxCell id="8o-GzvRx6LfEdR_IBOxN-30" value="+ quandoAdiciona(Produto): void" style="text;strokeColor=none;fillColor=none;align=left;verticalAlign=top;spacingLeft=4;spacingRight=4;overflow=hidden;rotatable=0;points=[[0,0.5],[1,0.5]];portConstraint=eastwest;" vertex="1" parent="8o-GzvRx6LfEdR_IBOxN-28">
          <mxGeometry y="34" width="210" height="26" as="geometry" />
        </mxCell>
        <mxCell id="8o-GzvRx6LfEdR_IBOxN-31" value="+ quandoRemove(Produto): void" style="text;strokeColor=none;fillColor=none;align=left;verticalAlign=top;spacingLeft=4;spacingRight=4;overflow=hidden;rotatable=0;points=[[0,0.5],[1,0.5]];portConstraint=eastwest;" vertex="1" parent="8o-GzvRx6LfEdR_IBOxN-28">
          <mxGeometry y="60" width="210" height="26" as="geometry" />
        </mxCell>
        <mxCell id="8o-GzvRx6LfEdR_IBOxN-32" value="+ quandoCompra(Produto[ ]): void" style="text;strokeColor=none;fillColor=none;align=left;verticalAlign=top;spacingLeft=4;spacingRight=4;overflow=hidden;rotatable=0;points=[[0,0.5],[1,0.5]];portConstraint=eastwest;" vertex="1" parent="8o-GzvRx6LfEdR_IBOxN-28">
          <mxGeometry y="86" width="210" height="26" as="geometry" />
        </mxCell>
        <mxCell id="8o-GzvRx6LfEdR_IBOxN-33" value="+ quandoAbandona(Produto[ ]): void" style="text;strokeColor=none;fillColor=none;align=left;verticalAlign=top;spacingLeft=4;spacingRight=4;overflow=hidden;rotatable=0;points=[[0,0.5],[1,0.5]];portConstraint=eastwest;" vertex="1" parent="8o-GzvRx6LfEdR_IBOxN-28">
          <mxGeometry y="112" width="210" height="26" as="geometry" />
        </mxCell>
        <mxCell id="8o-GzvRx6LfEdR_IBOxN-39" value="" style="endArrow=block;dashed=1;endFill=0;endSize=12;html=1;exitX=0.5;exitY=0;exitDx=0;exitDy=0;entryX=0.333;entryY=1;entryDx=0;entryDy=0;entryPerimeter=0;" edge="1" parent="1" source="8o-GzvRx6LfEdR_IBOxN-28" target="8o-GzvRx6LfEdR_IBOxN-35">
          <mxGeometry width="160" relative="1" as="geometry">
            <mxPoint x="390" y="210" as="sourcePoint" />
            <mxPoint x="550" y="210" as="targetPoint" />
          </mxGeometry>
        </mxCell>
        <mxCell id="8o-GzvRx6LfEdR_IBOxN-40" value="" style="endArrow=block;dashed=1;endFill=0;endSize=12;html=1;entryX=0.661;entryY=1.179;entryDx=0;entryDy=0;entryPerimeter=0;" edge="1" parent="1" target="8o-GzvRx6LfEdR_IBOxN-35">
          <mxGeometry width="160" relative="1" as="geometry">
            <mxPoint x="470" y="380" as="sourcePoint" />
            <mxPoint x="550" y="210" as="targetPoint" />
          </mxGeometry>
        </mxCell>
      </root>
    </mxGraphModel>
  </diagram>
</mxfile>
